<svg xmlns="http://www.w3.org/2000/svg" xmlns:xlink="http://www.w3.org/1999/xlink" version="1.1" x="0px" y="0px" viewBox="0 0 100 125" style="enable-background:new 0 0 100 100;" xml:space="preserve"><g><path d="M23.2,86.2h53.5c4.6,0,8.7-2.4,11-6.3c2.3-4,2.3-8.7,0.1-12.7l-26.8-47c-2.3-4-6.4-6.4-11.1-6.4s-8.8,2.4-11.1,6.4   l-26.8,47c-2.3,4-2.2,8.7,0.1,12.7C14.5,83.9,18.6,86.2,23.2,86.2z M18.3,70.7l26.8-47c1-1.8,2.9-2.9,5-2.9s3.9,1.1,5,2.9l26.8,47   c1,1.8,1,3.9,0,5.7c-1,1.8-2.9,2.8-4.9,2.8H23.2c-2.1,0-3.9-1.1-4.9-2.8C17.3,74.6,17.2,72.5,18.3,70.7z"/><path d="M49.5,61.5c1.9,0,3.5-1.6,3.5-3.5V39c0-1.9-1.6-3.5-3.5-3.5S46,37.1,46,39v19C46,59.9,47.6,61.5,49.5,61.5z"/><path d="M49.5,74.5c1.9,0,3.5-1.6,3.5-3.5v-3c0-1.9-1.6-3.5-3.5-3.5S46,66.1,46,68v3C46,72.9,47.6,74.5,49.5,74.5z"/></g><text x="0" y="115" fill="#000000" font-size="5px" font-weight="bold" font-family="'Helvetica Neue', Helvetica, Arial-Unicode, Arial, Sans-serif">Created by Genius Icons</text><text x="0" y="120" fill="#000000" font-size="5px" font-weight="bold" font-family="'Helvetica Neue', Helvetica, Arial-Unicode, Arial, Sans-serif">from the Noun Project</text></svg>